<?xml version="1.0"?>
<svg width="166" height="49" xmlns="http://www.w3.org/2000/svg" xmlns:svg="http://www.w3.org/2000/svg" xmlns:xlink="http://www.w3.org/1999/xlink">
 <defs>
  <path d="m0.01,0.03l93.96,0l0,48.29l-93.95,0l-0.01,-48.29z" id="a"/>
 </defs>
 <g class="layer">
  <title>Layer 1</title>
  <g fill="none" fill-rule="evenodd" id="svg_1">
   <path d="m0,14.13l0,0.12l27.95,13.13l28.05,-13.17l0,-0.03l-28.05,-13.18l-27.95,13.13zm10.08,0.06l17.87,-8.4l17.88,8.4l-17.88,8.4l-17.87,-8.4zm17.87,18.29l-27.95,-12.93l0,4.78l27.95,12.97l28.05,-13.01l0,-4.78l-28.05,12.97zm0,9.71l-27.95,-12.94l0,4.78l27.95,12.97l28.05,-13.01l0,-4.78l-28.05,12.98z" fill="#ffffff" id="svg_2"/>
   <g id="svg_3" transform="translate(72)">
    <mask fill="#ffffff" id="b">
     <use fill="#ffffff" id="svg_4" xlink:href="#a"/>
    </mask>
    <path d="m87.56,24.15a8.1,8.1 0 0 0 -2.16,-5.57a7.26,7.26 0 0 0 -2.34,-1.67a6.86,6.86 0 0 0 -2.85,-0.61c-1.01,0 -1.96,0.2 -2.85,0.61a7.26,7.26 0 0 0 -2.34,1.67a8.1,8.1 0 0 0 -2.16,5.57a8.1,8.1 0 0 0 2.16,5.58a7.26,7.26 0 0 0 2.34,1.67a6.86,6.86 0 0 0 2.85,0.6c1.01,0 1.96,-0.2 2.85,-0.6a7.26,7.26 0 0 0 2.34,-1.67a8.1,8.1 0 0 0 2.16,-5.58zm6.42,0c0,1.93 -0.36,3.73 -1.07,5.38a13.1,13.1 0 0 1 -2.94,4.27c-1.25,1.21 -2.71,2.16 -4.39,2.86c-1.68,0.7 -3.47,1.05 -5.37,1.05c-1.9,0 -3.68,-0.35 -5.35,-1.05a13.86,13.86 0 0 1 -4.36,-2.88a13.35,13.35 0 0 1 -2.94,-4.3c-0.72,-1.65 -1.07,-3.43 -1.07,-5.33c0,-1.87 0.36,-3.63 1.09,-5.28a13.92,13.92 0 0 1 2.96,-4.33a13.67,13.67 0 0 1 4.37,-2.89a13.55,13.55 0 0 1 5.3,-1.05c1.9,0 3.69,0.35 5.37,1.05c1.68,0.69 3.14,1.65 4.39,2.85c1.24,1.2 2.22,2.64 2.94,4.3c0.71,1.67 1.07,3.45 1.07,5.35zm-29.72,12.76a8.6,8.6 0 0 1 -1.72,0.57c-0.64,0.15 -1.3,0.23 -1.98,0.23a9.84,9.84 0 0 1 -2.74,-0.38a6,6 0 0 1 -2.29,-1.23c-0.66,-0.56 -1.18,-1.3 -1.56,-2.2c-0.39,-0.91 -0.58,-2 -0.58,-3.28l0,-30.59l6.55,0l0,29.47c0,1.07 0.21,1.81 0.64,2.21c0.43,0.4 0.95,0.6 1.54,0.6c0.74,0 1.45,-0.22 2.14,-0.67l0,5.27zm-13.77,-25.69l-11.58,30.63c-0.86,2.29 -1.99,3.94 -3.39,4.95c-1.39,1.01 -3.06,1.52 -4.99,1.52c-0.3,0 -0.62,-0.02 -0.98,-0.07a7.35,7.35 0 0 1 -1.02,-0.2l-2.14,-5.97a8.49,8.49 0 0 0 1.56,0.55c0.53,0.14 1.04,0.21 1.51,0.21c1.01,0 1.93,-0.23 2.76,-0.7c0.84,-0.46 1.47,-1.31 1.92,-2.56l0.89,-2.59l-9.93,-25.77l6.99,0l5.93,16.59l5.57,-16.59l6.9,0zm-26.95,-3.88l-16.75,0l0,8.3l16.52,0l0,5.61l-16.52,0l0,15.79l-6.78,0l0,-35.63l23.53,0l0,5.93z" fill="#ffffff" id="svg_5" mask="url(#b)"/>
   </g>
  </g>
 </g>
</svg>